<svg id="Layer_1" data-name="Layer 1" xmlns="http://www.w3.org/2000/svg" viewBox="0 0 431.98 55.3">
  <path d="M0,23.07V54.36H15.53V18.12H5A5,5,0,0,0,0,23.07Zm19.41-9V54.36H34.94V9.06H24.37A5,5,0,0,0,19.41,14Zm43.78,4.1a5,5,0,0,0-4.95,4.95V54.36H73.77V18.12ZM38.83,5v49.4H54.36V0H43.78A5,5,0,0,0,38.83,5Z" transform="translate(0 0)"/>
  <path d="M157.92,13c-13.11,0-22.27,9.56-22.27,21.23a20.9,20.9,0,0,0,20.75,21,18.11,18.11,0,0,0,13.2-5.09v4.23h10.5V34.23C180.1,22.56,170.94,13,157.92,13Zm0,32.66a11.12,11.12,0,0,1-11.09-11.35c0-6.66,4.95-11.6,11.09-11.6A11.34,11.34,0,0,1,169,34.31,11.22,11.22,0,0,1,157.92,45.66Zm257-15.9L431.05,14H415.76L401.55,28.67V.28H390.46V54.36h11.09V42.76l5.55-5.4,10.76,17H432ZM107.41,0H85.81V54.36h21.6c16,0,26.3-10.58,26.3-27.18C133.71,10.42,123.63,0,107.41,0Zm0,44.72H96.9V9.63h10.51c12.52,0,15.21,9.48,15.21,17.47C122.62,33.68,120.6,44.72,107.41,44.72Zm87.07-7.28V23.18h7.81V14h-7.81V3.76h-11.1v33.6c0,11,6.73,18.17,19.42,16.92v-9.4C197.25,45.19,194.48,43.08,194.48,37.44ZM320.79,13c-12,0-21.77,9.16-21.77,21.23s9.75,21.07,21.77,21.07,21.85-9,21.85-21.07S332.81,13,320.79,13Zm0,32.82c-5.88,0-10.67-4.7-10.67-11.51,0-7,4.79-11.83,10.67-11.83s10.67,4.85,10.67,11.83C331.46,41.12,326.67,45.82,320.79,45.82ZM226.24,13C213.13,13,204,22.56,204,34.23a20.9,20.9,0,0,0,20.76,21,18.08,18.08,0,0,0,13.19-5.09v4.23h10.51V34.23C248.43,22.56,239.27,13,226.24,13Zm0,32.66a11.12,11.12,0,0,1-11.09-11.35c0-6.66,5-11.6,11.09-11.6a11.34,11.34,0,0,1,11.1,11.6A11.23,11.23,0,0,1,226.24,45.66ZM275,13.16c-5.05,0-9.33,1.49-12.61,4.7V.28H251.2V34.23c0,11.67,9.16,21.07,22.27,21.07s22.19-9.4,22.19-21.07A20.9,20.9,0,0,0,275,13.16Zm-1.52,32.5a11.22,11.22,0,0,1-11.09-11.35,11.34,11.34,0,0,1,11.09-11.6c6.14,0,11.1,4.94,11.1,11.6A11.13,11.13,0,0,1,273.47,45.66ZM366.09,13c-12,0-21.77,9.16-21.77,21.23s9.75,21.07,21.77,21.07,21.85-9,21.85-21.07S378.1,13,366.09,13Zm0,32.82c-5.89,0-10.68-4.7-10.68-11.51,0-7,4.79-11.83,10.68-11.83s10.67,4.85,10.67,11.83C376.76,41.12,372,45.82,366.09,45.82Z" transform="translate(0 0)"/>
</svg>
