 <svg version="1.0" xmlns="http://www.w3.org/2000/svg" width="700.000000pt" height="269.000000pt" viewBox="0 0 700.000000 269.000000" preserveAspectRatio="xMidYMid meet">
<metadata>
Created by potrace 1.12, written by Peter Selinger 2001-2015
</metadata>
<g transform="translate(0.000000,269.000000) scale(0.100000,-0.100000)" fill="#000000" stroke="none">
<path d="M3950 2593 c0 -5 0 -552 0 -1218 l0 -1210 245 0 246 0 2 490 2 490
409 3 c226 1 413 -1 418 -6 5 -5 -54 -70 -130 -144 l-139 -137 169 -168 168
-168 138 138 c75 75 142 137 147 137 6 0 10 -74 10 -197 l0 -198 235 0 235 0
2 194 c1 106 3 195 5 197 2 2 64 -57 138 -131 74 -74 139 -135 145 -135 6 0
84 74 175 165 l165 166 -142 140 c-78 77 -136 142 -130 144 7 3 95 6 197 7
l185 3 0 235 0 235 -190 1 c-104 0 -194 1 -200 2 -5 1 54 66 133 145 l142 142
-168 168 -167 167 -135 -135 c-74 -74 -139 -135 -145 -135 -6 0 -10 69 -10
192 l0 193 -235 0 -235 0 -2 -194 c-1 -106 -5 -196 -8 -199 -4 -4 -69 58 -146
137 l-140 145 -165 -165 c-90 -90 -164 -168 -164 -174 0 -6 61 -71 135 -145
74 -74 133 -136 131 -137 -2 -2 -190 -4 -417 -4 l-414 -1 -2 484 -2 483 -245
3 c-135 1 -246 -1 -246 -5z m80 -38 c0 -3 -9 -14 -20 -25 -11 -11 -22 -20 -25
-20 -7 0 -6 36 2 43 7 8 43 9 43 2z m377 -10 c3 -9 3 -19 -1 -22 -7 -7 -36 16
-36 28 0 15 30 10 37 -6z m-37 -509 l5 -479 90 -2 c74 -2 986 -6 1006 -5 4 0
-74 80 -172 177 -99 97 -179 182 -179 188 0 5 50 60 110 120 l111 110 179
-181 c99 -99 182 -179 185 -176 3 3 5 117 5 254 l0 248 160 0 160 0 0 -250 c0
-137 3 -250 8 -250 4 0 84 77 177 170 93 94 174 170 180 170 6 0 60 -50 120
-110 l110 -111 -183 -176 c-100 -96 -181 -177 -179 -180 3 -2 118 -5 256 -6
l252 -2 0 -158 1 -159 -249 1 c-137 1 -251 -1 -254 -4 -3 -3 76 -86 175 -185
l181 -179 -110 -111 c-60 -60 -115 -110 -121 -110 -6 0 -88 79 -183 175 -95
96 -174 175 -177 175 -2 0 -5 -114 -6 -253 l-3 -252 -155 0 -155 0 -3 253 c-1
138 -6 252 -10 252 -4 0 -87 -80 -184 -177 l-178 -178 -112 113 -113 112 178
178 c97 97 177 181 177 186 0 4 -247 6 -550 5 l-550 -3 -2 -491 -3 -490 -170
0 -170 0 -3 1125 c-1 619 0 1131 3 1138 3 10 44 12 172 10 l168 -3 5 -479z
m1690 289 c7 -9 10 -18 7 -22 -8 -7 -37 15 -37 28 0 14 16 11 30 -6z m-360 -4
c0 -12 -20 -25 -27 -18 -7 7 6 27 18 27 5 0 9 -4 9 -9z m-342 -148 c2 -8 -5
-13 -17 -13 -21 0 -35 13 -24 24 10 10 36 3 41 -11z m1060 0 c2 -8 -6 -13 -22
-13 -25 0 -33 10 -19 24 10 10 36 3 41 -11z m-290 -221 c23 -5 23 -5 -9 -38
-18 -18 -36 -31 -41 -28 -4 3 -8 23 -8 46 0 34 3 39 18 33 9 -4 27 -10 40 -13z
m-458 -32 c0 -46 -11 -50 -45 -15 -31 30 -31 42 -2 48 46 9 47 8 47 -33z
m-580 -12 c0 -30 -1 -31 -16 -16 -9 9 -14 24 -11 32 11 27 27 17 27 -16z
m1577 -2 c-4 -9 -11 -16 -18 -16 -6 0 -8 7 -5 16 3 9 6 21 6 27 0 8 3 8 11 0
7 -7 9 -19 6 -27z m-1298 -290 c18 -22 5 -36 -34 -36 -41 0 -46 7 -38 53 l6
37 27 -20 c15 -10 32 -26 39 -34z m1061 25 c0 -11 5 -23 10 -26 18 -11 -10
-35 -41 -35 -40 0 -45 17 -13 51 32 34 44 36 44 10z m-2002 -35 c3 -12 -1 -17
-10 -14 -7 3 -15 13 -16 22 -3 12 1 17 10 14 7 -3 15 -13 16 -22z m2389 -31
c3 -9 3 -19 -1 -22 -7 -7 -36 16 -36 28 0 15 30 10 37 -6z m3 -364 c0 -12 -20
-25 -27 -18 -7 7 6 27 18 27 5 0 9 -4 9 -9z m-2380 -31 c0 -12 -28 -25 -36
-17 -9 9 6 27 22 27 8 0 14 -5 14 -10z m934 3 c7 -7 -52 -73 -66 -73 -4 0 -8
11 -8 24 0 14 -4 28 -10 31 -5 3 -10 10 -10 16 0 10 83 13 94 2z m1076 -2 c0
-6 -4 -13 -10 -16 -5 -3 -10 -15 -10 -26 0 -10 -4 -19 -8 -19 -14 0 -63 56
-55 63 10 11 83 8 83 -2z m-780 -332 c0 -21 -2 -39 -5 -39 -4 0 -57 22 -64 27
-8 6 52 62 61 57 4 -3 8 -23 8 -45z m-580 9 c0 -30 -1 -31 -17 -16 -13 14 -14
20 -3 32 18 22 20 20 20 -16z m1027 10 c28 -26 30 -48 4 -48 -11 0 -23 -5 -26
-10 -12 -20 -25 1 -25 41 0 45 13 49 47 17z m551 -14 c-5 -28 -28 -29 -28 -1
0 13 3 27 7 31 10 10 25 -10 21 -30z m-238 -245 c0 -17 -32 -33 -48 -23 -28
18 -23 30 13 30 19 0 35 -3 35 -7z m-1070 -8 c0 -19 -22 -23 -38 -7 -15 15
-14 16 11 16 15 0 27 -4 27 -9z m710 -136 c0 -16 -27 -32 -37 -21 -7 7 16 36
28 36 5 0 9 -7 9 -15z m-372 -14 c3 -8 -1 -12 -9 -9 -7 2 -15 10 -17 17 -3 8
1 12 9 9 7 -2 15 -10 17 -17z m-1690 -221 c7 -11 19 -20 27 -20 8 0 15 -5 15
-11 0 -6 -14 -9 -32 -7 -28 2 -34 8 -36 31 -4 32 8 35 26 7z m402 -4 c0 -19
-27 -39 -40 -31 -8 5 -6 13 6 26 20 22 34 25 34 5z"></path>
<path d="M160 2476 c0 -3 0 -525 0 -1158 l0 -1153 257 0 258 0 3 520 c2 286 0
553 -3 593 -6 63 -9 72 -26 72 -18 0 -20 6 -17 62 2 37 8 63 15 65 7 3 24 -20
40 -52 25 -50 26 -57 12 -66 -20 -10 -26 2 194 -409 22 -41 62 -118 90 -170
27 -52 80 -151 117 -220 37 -69 70 -134 74 -144 9 -26 13 -20 83 114 133 255
177 337 198 375 13 22 42 76 65 120 23 44 67 126 97 183 30 56 53 108 51 114
-7 19 -37 -33 -198 -332 -84 -157 -157 -290 -162 -296 -5 -7 -28 -52 -52 -100
-52 -109 -68 -125 -90 -92 -8 13 -22 40 -31 62 l-16 38 27 -21 c15 -12 29 -19
32 -17 3 4 -81 171 -173 341 -15 28 -50 93 -78 145 -27 52 -62 118 -77 145
-15 28 -57 109 -95 180 -82 158 -84 160 -122 148 l-28 -10 -5 -634 -5 -634
-180 0 -180 0 0 1075 0 1075 171 3 c129 2 174 -1 181 -10 6 -7 41 -71 78 -143
37 -71 71 -134 75 -140 4 -5 40 -73 80 -150 40 -77 87 -167 105 -200 43 -81
109 -204 189 -357 37 -71 69 -128 71 -128 5 0 51 84 127 230 95 180 159 303
193 365 18 33 58 110 90 170 32 61 80 153 108 205 29 52 58 109 67 125 l15 30
143 3 c183 3 192 22 10 22 -123 0 -135 -2 -161 -23 -25 -20 -91 -138 -409
-729 -83 -156 -128 -224 -95 -146 19 45 466 900 479 916 8 9 55 12 174 12 105
0 164 4 164 10 0 7 -61 10 -177 8 l-176 -3 -22 -40 c-11 -22 -50 -94 -84 -160
-35 -66 -78 -147 -96 -180 -18 -33 -59 -109 -90 -170 -32 -60 -72 -135 -88
-165 -16 -30 -54 -102 -85 -160 -71 -136 -82 -154 -92 -144 -4 5 -31 52 -58
105 -28 53 -67 128 -88 165 -20 38 -57 107 -81 154 -70 131 -163 307 -210 395
-24 44 -57 108 -75 143 l-32 62 -222 0 c-122 0 -229 3 -238 6 -9 3 -16 3 -16
0z m1090 -1021 c-33 -87 -69 -127 -83 -92 -3 6 -12 29 -21 50 l-17 38 25 -16
c30 -20 59 -13 80 20 21 32 28 32 16 0z m-610 -1234 c0 -12 -20 -25 -27 -18
-7 7 6 27 18 27 5 0 9 -4 9 -9z"></path>
<path d="M2180 2463 c0 -5 5 -14 10 -19 7 -7 9 -392 8 -1135 l-3 -1124 -224
-3 c-156 -2 -228 1 -237 9 -12 9 -14 107 -14 560 0 354 -4 550 -10 554 -13 8
-11 73 -12 -580 l0 -560 258 0 259 0 0 1150 c0 1087 -1 1150 -17 1153 -10 2
-18 0 -18 -5z"></path>
<path d="M2140 1320 c0 -693 3 -1050 10 -1050 7 0 10 357 10 1050 0 693 -3
1050 -10 1050 -7 0 -10 -357 -10 -1050z"></path>
<path d="M2915 1923 c-144 -22 -294 -93 -391 -185 -73 -69 -140 -166 -131
-191 2 -6 13 6 25 29 52 103 176 216 286 264 117 50 202 64 371 63 129 -1 176
-5 240 -22 95 -25 202 -76 267 -126 54 -42 122 -126 137 -170 l11 -30 -18 23
c-98 131 -149 178 -249 227 -216 106 -568 96 -784 -22 -114 -61 -222 -194
-255 -313 -9 -30 -18 -63 -20 -72 -3 -10 -1 -18 4 -18 6 0 16 24 22 53 17 73
73 176 126 231 137 143 346 206 619 185 286 -21 470 -152 552 -392 l28 -82 0
-340 c0 -320 -1 -344 -22 -410 -34 -112 -70 -175 -139 -242 -120 -118 -284
-173 -512 -173 -239 0 -386 53 -519 186 -40 40 -80 90 -89 111 -9 22 -18 32
-21 25 -3 -8 4 -27 16 -43 11 -15 21 -33 21 -38 0 -5 28 -38 63 -73 75 -77
186 -137 306 -168 112 -28 341 -31 451 -6 160 38 299 127 375 241 40 61 50 69
34 27 -32 -84 -154 -194 -275 -248 -122 -55 -342 -84 -484 -65 -282 39 -448
143 -548 346 -16 33 -33 75 -37 93 -3 17 -11 32 -16 32 -18 0 -2 -47 64 -190
19 -42 159 -174 217 -206 119 -65 281 -104 438 -104 92 0 250 23 320 46 77 26
180 84 233 132 53 48 121 140 134 182 4 14 12 30 17 37 5 6 19 49 30 95 20 76
22 110 22 408 0 308 -1 330 -22 410 -55 202 -185 355 -362 423 -142 56 -167
60 -340 63 -91 1 -178 0 -195 -3z m855 -444 c0 -5 -4 -9 -10 -9 -5 0 -10 7
-10 16 0 8 5 12 10 9 6 -3 10 -10 10 -16z m30 -759 c0 -5 -4 -10 -10 -10 -5 0
-10 5 -10 10 0 6 5 10 10 10 6 0 10 -4 10 -10z m-30 -134 c0 -14 -21 -58 -26
-54 -8 8 7 58 17 58 5 0 9 -2 9 -4z"></path>
<path d="M2954 1621 c-125 -31 -205 -95 -256 -207 -22 -48 -23 -57 -23 -374 0
-320 0 -326 24 -389 33 -87 104 -157 192 -191 57 -22 79 -25 199 -25 127 0
139 2 197 29 77 35 152 111 179 181 17 46 19 78 19 390 l0 340 -28 60 c-16 33
-40 73 -55 88 -64 67 -207 118 -324 116 -29 0 -85 -8 -124 -18z m307 -39 c75
-30 132 -81 166 -150 l28 -57 3 -324 c4 -388 1 -402 -88 -492 -80 -81 -140
-103 -290 -104 -100 0 -123 3 -178 25 -79 31 -145 93 -180 168 l-27 57 0 325
0 325 26 55 c36 76 80 124 145 156 79 38 106 43 229 40 84 -2 123 -8 166 -24z"></path>
<path d="M3040 1583 c-59 -5 -143 -33 -185 -62 -52 -35 -100 -108 -114 -171
-14 -67 -14 -573 0 -640 30 -142 161 -230 344 -230 174 0 297 73 339 202 13
42 16 100 16 347 0 356 -4 378 -84 457 -74 74 -188 109 -316 97z m225 -59 c65
-32 117 -90 136 -152 17 -57 24 -539 9 -627 -16 -89 -28 -113 -85 -163 -83
-73 -212 -98 -346 -68 -92 20 -160 69 -198 141 l-26 50 -3 293 c-2 181 1 312
7 343 21 96 81 162 182 200 44 16 73 19 159 16 92 -3 113 -7 165 -33z"></path>
<path d="M1622 1383 c-44 -82 -103 -193 -132 -248 -29 -55 -72 -136 -95 -180
-23 -44 -66 -125 -95 -180 -29 -55 -66 -123 -81 -151 -34 -61 -35 -68 -9 -54
11 6 31 32 45 58 14 26 29 54 34 62 6 8 101 191 211 405 111 215 206 394 211
399 5 5 14 4 24 -4 13 -11 15 -85 15 -624 1 -492 3 -614 14 -628 12 -16 33
-18 185 -18 104 0 171 4 171 10 0 6 -69 11 -172 12 l-173 3 -3 633 -2 633 -26
9 c-14 6 -29 10 -34 10 -5 0 -44 -66 -88 -147z"></path>
<path d="M2372 1513 c-15 -28 -25 -83 -15 -83 10 0 36 90 29 97 -2 3 -9 -4
-14 -14z"></path>
<path d="M2340 1400 c0 -5 5 -10 10 -10 6 0 10 5 10 10 0 6 -4 10 -10 10 -5 0
-10 -4 -10 -10z"></path>
<path d="M2330 1030 c0 -220 4 -340 10 -340 6 0 10 120 10 340 0 220 -4 340
-10 340 -6 0 -10 -120 -10 -340z"></path>
<path d="M2390 1045 c0 -203 4 -315 10 -315 6 0 10 112 10 315 0 203 -4 315
-10 315 -6 0 -10 -112 -10 -315z"></path>
<path d="M2405 668 c15 -72 26 -107 37 -114 8 -5 9 0 4 17 -3 13 -12 48 -18
77 -6 28 -15 52 -20 52 -5 0 -7 -14 -3 -32z"></path>
<path d="M2340 660 c0 -5 5 -10 10 -10 6 0 10 5 10 10 0 6 -4 10 -10 10 -5 0
-10 -4 -10 -10z"></path>
</g>
</svg>