<?xml version="1.0" encoding="UTF-8" standalone="no"?>
<svg
   xmlns:dc="http://purl.org/dc/elements/1.1/"
   xmlns:cc="http://creativecommons.org/ns#"
   xmlns:rdf="http://www.w3.org/1999/02/22-rdf-syntax-ns#"
   xmlns:svg="http://www.w3.org/2000/svg"
   xmlns="http://www.w3.org/2000/svg"
   xmlns:sodipodi="http://sodipodi.sourceforge.net/DTD/sodipodi-0.dtd"
   xmlns:inkscape="http://www.inkscape.org/namespaces/inkscape"
   version="1.1"
   id="svg2061"
   width="1000"
   height="284.55878"
   viewBox="0 0 999.99999 284.55878"
   sodipodi:docname="learningequality.svg"
   inkscape:version="1.0.2 (e86c8708, 2021-01-15)">
  <metadata
     id="metadata2067">
    <rdf:RDF>
      <cc:Work
         rdf:about="">
        <dc:format>image/svg+xml</dc:format>
        <dc:type
           rdf:resource="http://purl.org/dc/dcmitype/StillImage" />
        <dc:title></dc:title>
      </cc:Work>
    </rdf:RDF>
  </metadata>
  <defs
     id="defs2065" />
  <sodipodi:namedview
     pagecolor="#ffffff"
     bordercolor="#666666"
     borderopacity="1"
     objecttolerance="10"
     gridtolerance="10"
     guidetolerance="10"
     inkscape:pageopacity="0"
     inkscape:pageshadow="2"
     inkscape:window-width="1720"
     inkscape:window-height="1313"
     id="namedview2063"
     showgrid="false"
     fit-margin-top="0"
     fit-margin-left="0"
     fit-margin-right="0"
     fit-margin-bottom="0"
     inkscape:zoom="1.8775542"
     inkscape:cx="290.68519"
     inkscape:cy="-104.17622"
     inkscape:window-x="1720"
     inkscape:window-y="25"
     inkscape:window-maximized="0"
     inkscape:current-layer="g2069" />
  <g
     inkscape:groupmode="layer"
     inkscape:label="Image"
     id="g2069"
     transform="translate(-5.977351,-188.66572)">
    <path
       style="fill:#000000;stroke-width:0.200051"
       d="m 177.43326,473.12331 c -11.80765,-0.95496 -23.17627,-5.96379 -31.29209,-13.78685 -1.20352,-1.16008 -6.07186,-6.65542 -10.81853,-12.21183 -4.74667,-5.55641 -25.95235,-30.40269 -47.123729,-55.21398 C 67.02753,367.09936 41.327667,336.98673 31.088104,324.99369 20.848542,313.00065 11.753263,302.33295 10.876373,301.28769 9.9994827,300.24242 8.5384748,298.55976 7.6296887,297.54846 6.7209025,296.53714 5.977351,295.67378 5.977351,295.62986 c 0,-0.0438 0.7426884,-0.69994 1.6504175,-1.45785 0.9077308,-0.75792 3.0007595,-2.55117 4.6511795,-3.98501 7.135268,-6.19893 11.017662,-8.95375 15.804003,-11.21405 6.320569,-2.9848 12.326956,-4.42065 19.404916,-4.63883 8.412864,-0.25932 16.19869,1.42024 23.812776,5.13691 5.668359,2.76691 10.564929,6.44451 14.428485,10.83663 1.102035,1.2528 12.172095,14.20584 24.600132,28.78453 53.95773,63.29504 65.86514,77.16783 67.9356,79.14872 3.75081,3.58857 9.02833,6.76761 13.85964,8.34875 7.60681,2.48947 15.83752,2.49545 23.4588,0.017 2.6749,-0.86986 6.80238,-2.87824 9.17039,-4.46216 0.9892,-0.66166 6.83555,-5.51015 12.99188,-10.77443 6.15633,-5.26425 16.05455,-13.70792 21.99607,-18.7637 22.18134,-18.87464 35.50567,-30.24555 45.70193,-39.00179 5.77116,-4.95609 10.66928,-9.13879 10.88471,-9.29487 0.3545,-0.25685 0.43719,-0.22836 0.8713,0.30008 0.2638,0.32112 1.14423,1.57411 1.95654,2.78441 2.76404,4.11828 4.93907,9.36518 5.93769,14.32365 0.60687,3.0133 0.66198,9.63206 0.10402,12.48316 -1.2907,6.59441 -3.81343,12.17403 -7.69495,17.01909 -2.13192,2.66116 -2.35868,2.86395 -19.25144,17.21763 -7.86699,6.68456 -25.60148,21.79427 -39.40999,33.57712 -24.75288,21.12178 -45.5306,38.80762 -47.541,40.46654 -3.04763,2.51477 -8.07361,5.377 -12.50562,7.12176 -6.66812,2.62506 -15.14861,4.02253 -21.36152,3.52006 z m 345.6751,-12.79579 c -3.39559,-0.84097 -9.19306,-3.47915 -14.10359,-6.41793 -5.17987,-3.09998 -8.66911,-5.80082 -12.99202,-10.05634 -2.58698,-2.54665 -2.61766,-2.56897 -3.21207,-2.33586 -3.85775,1.51297 -7.98202,2.54357 -12.10308,3.02443 -3.0583,0.35685 -11.09464,0.29514 -14.50016,-0.11144 -19.18903,-2.29052 -30.13291,-11.67684 -34.52819,-29.614 -1.37936,-5.6291 -1.87992,-11.59981 -1.72431,-20.56732 0.10621,-6.1205 0.30901,-8.54672 1.04721,-12.52676 1.4809,-7.98432 4.64241,-15.43253 8.79137,-20.71174 4.59329,-5.84455 10.47885,-10.03878 17.9601,-12.79887 8.84049,-3.26157 20.91361,-3.99257 31.34593,-1.89794 2.82825,0.56786 7.41557,2.09498 10.10567,3.36417 11.44875,5.40154 18.71015,16.64799 20.91011,32.38566 0.89207,6.38146 1.00981,14.43263 0.29902,20.44968 -1.06121,8.98372 -3.87697,18.00744 -7.3093,23.42432 -1.35022,2.13089 -3.56551,5.10599 -4.37125,5.87052 -0.3406,0.32317 -0.61916,0.68325 -0.61908,0.8002 0,0.26491 3.18176,2.89636 5.00893,4.14284 2.89918,1.97782 10.44181,5.71828 13.601,6.74486 1.49775,0.48671 3.01151,2.28865 3.01397,3.5878 0,0.2975 -0.0868,2.5214 -0.1942,4.94202 -0.24942,5.62286 -0.73489,7.83846 -1.84315,8.41156 -0.76178,0.39392 -2.74013,0.34646 -4.58291,-0.10991 z m -44.91139,-31.82845 c 5.43864,-0.66385 9.87042,-2.71896 13.30674,-6.17064 2.79835,-2.81083 4.68417,-6.00567 6.15181,-10.42201 1.913,-5.75641 2.32696,-8.76519 2.3383,-16.99502 0.0101,-6.98894 -0.1347,-8.64373 -1.19973,-13.74824 -0.77065,-3.69392 -1.39824,-5.66356 -2.53536,-7.95725 -3.15445,-6.36277 -7.83624,-10.03094 -14.5666,-11.41285 -2.30826,-0.47395 -8.44968,-0.59788 -10.89702,-0.21988 -3.909,0.60372 -7.27261,1.89177 -10.00852,3.83261 -1.73949,1.23399 -4.6239,4.36358 -5.86567,6.36428 -2.25635,3.63534 -3.72983,7.99495 -4.51485,13.35826 -0.71146,4.86073 -0.9307,8.94697 -0.71808,13.38398 0.2139,4.46393 0.43631,6.35046 1.22193,10.36378 1.00397,5.12887 2.05845,7.82639 4.27711,10.94163 4.37776,6.1468 9.9604,8.78115 18.80889,8.87553 1.32032,0.0135 3.21081,-0.0733 4.20105,-0.19418 z m 93.02357,15.41704 c -5.63091,-0.6204 -9.96612,-1.85048 -14.80375,-4.20038 -2.98179,-1.44842 -4.36721,-2.36164 -6.62872,-4.36943 -4.65376,-4.13165 -7.53562,-9.12568 -9.25925,-16.04544 -1.36688,-5.48754 -1.27778,-2.94996 -1.35858,-38.69309 -0.0403,-17.82451 -0.0249,-32.60331 0.0342,-32.84179 0.17568,-0.70928 1.35048,-1.25878 3.80082,-1.77777 1.90016,-0.40246 2.87864,-0.48931 5.51245,-0.48931 4.84827,0 8.02299,0.65253 9.27734,1.9069 0.29333,0.29334 0.32221,2.96454 0.32221,29.80451 0,31.10166 0.0491,33.07022 0.90877,36.45929 1.20702,4.75812 4.44047,9.53151 7.73177,11.41397 1.22895,0.7029 3.8882,1.68955 5.76311,2.13827 2.89926,0.69386 9.03285,0.58899 12.0877,-0.2067 2.48335,-0.64682 6.05065,-2.62386 7.88569,-4.37031 2.81038,-2.67471 4.94323,-7.44969 5.42513,-12.1457 0.13419,-1.30691 0.20798,-12.80504 0.20798,-32.37575 V 347.7743 l 0.55014,-0.50566 c 1.15071,-1.05764 3.56583,-1.54983 8.35211,-1.70206 3.15406,-0.10031 3.86834,-0.062 5.75596,0.30789 2.07037,0.40585 3.94601,1.13858 4.27432,1.66983 0.26874,0.43483 0.89578,59.48877 0.66434,62.57095 -0.7302,9.72621 -3.47862,16.70897 -9.08455,23.08075 -4.59187,5.21917 -12.56165,8.91243 -22.55467,10.45207 -2.40464,0.37048 -12.31312,0.54916 -14.86447,0.26804 z m 368.77677,-0.87524 c -0.0459,-0.0455 -0.7821,-0.17977 -1.63611,-0.29839 -1.69606,-0.23553 -3.78946,-1.14816 -4.14116,-1.80534 -0.13892,-0.2594 -0.2076,-6.12369 -0.2076,-17.70429 v -17.31638 l -13.78013,-27.56404 c -10.0138,-20.03026 -13.84636,-27.88284 -14.02231,-28.73045 -0.19632,-0.94562 -0.19125,-1.30017 0.0268,-1.87307 0.49817,-1.30888 0.91235,-1.45801 4.8937,-1.76195 4.38308,-0.3346 10.48811,-0.36682 11.91934,-0.0629 0.58307,0.12374 1.56151,0.47703 2.17437,0.7849 0.94651,0.47552 1.20725,0.73524 1.73202,1.72539 0.87011,1.64174 11.38528,25.04734 12.61174,28.0724 0.55763,1.37535 1.70237,4.34242 2.54386,6.59346 1.86962,5.00141 1.80874,4.88259 2.10472,4.10926 0.12627,-0.33009 1.0299,-2.72326 2.00791,-5.31818 2.20207,-5.8426 3.08059,-7.89024 9.39104,-21.88871 5.75547,-12.76734 6.06687,-13.41595 6.56986,-13.68514 0.20221,-0.10823 1.35042,-0.3927 2.55155,-0.63218 2.02174,-0.40307 2.54037,-0.4254 6.9851,-0.30092 4.77031,0.13369 7.85827,0.49043 8.92408,1.03118 0.2871,0.14566 0.63315,0.53327 0.76908,0.86136 0.56083,1.35404 -0.34332,3.30844 -14.98054,32.38176 l -13.21731,26.25302 v 17.19261 c 0,10.51752 -0.0747,17.38902 -0.19233,17.69848 -0.5138,1.35135 -4.56041,2.32088 -9.687,2.32088 -1.79153,0 -3.29484,-0.0373 -3.34068,-0.0828 z m -139.81876,-0.57696 c -2.19179,-0.47702 -2.80038,-0.71707 -3.5509,-1.40066 l -0.45012,-0.40999 v -46.37688 c 0,-45.78265 0.005,-46.3819 0.39181,-46.76868 0.73928,-0.7393 1.91225,-1.16101 4.40941,-1.58527 5.53739,-0.94082 12.34049,-0.15004 13.94295,1.62053 0.345,0.38117 0.36293,2.38242 0.4128,46.00402 0.0287,25.08303 -0.0179,46.0264 -0.10351,46.5408 -0.14397,0.86511 -0.23217,0.97646 -1.1753,1.48363 -1.52444,0.81976 -3.67347,1.15937 -7.97568,1.2604 -3.4171,0.0802 -4.0131,0.0432 -5.9015,-0.3679 z m -167.74249,0.0519 c -2.09551,-0.22228 -3.67044,-0.77571 -4.19125,-1.47281 -0.56181,-0.75199 -0.53878,-2.53493 0.061,-4.72115 0.72906,-2.65753 29.78696,-86.56635 30.4726,-87.99399 0.54492,-1.13462 0.72182,-1.32252 1.63795,-1.73972 2.08489,-0.94945 4.20688,-1.13145 12.1662,-1.04347 6.90862,0.0764 7.33362,0.10267 8.65237,0.53669 1.89027,0.62202 2.18742,0.85518 2.77247,2.17541 0.7337,1.65568 31.35975,86.91793 31.77653,88.46518 0.19265,0.71518 0.35546,1.85984 0.36181,2.54368 0.0101,1.10339 -0.0558,1.31995 -0.58585,1.92372 -0.78519,0.89432 -1.52774,1.06377 -5.80426,1.32464 -8.17125,0.49841 -12.65273,0.0956 -13.7583,-1.23645 -0.12543,-0.15122 -1.04088,-2.7909 -2.03428,-5.8661 -0.99336,-3.07518 -2.50511,-7.70677 -3.35939,-10.29243 l -1.55326,-4.70119 -17.99348,-0.0511 c -9.89642,-0.0281 -18.06055,0.017 -18.14248,0.1 -0.0819,0.0831 -1.58671,4.69501 -3.34392,10.24867 -3.6275,11.46465 -3.34485,10.89976 -5.76129,11.51479 -1.57675,0.40131 -8.61564,0.57806 -11.37317,0.2856 z m 52.31325,-37.65306 c 0,-0.0806 -13.38714,-40.22408 -13.52575,-40.55916 -0.0996,-0.24068 -13.68114,39.92433 -13.68114,40.45951 0,0.0829 6.12155,0.15072 13.60344,0.15072 7.4819,0 13.60345,-0.0229 13.60345,-0.0511 z m -320.43807,37.0824 c -1.31993,-0.45594 -1.90395,-0.99799 -2.59812,-2.41143 l -0.54579,-1.11135 v -44.11114 -44.11119 l 0.59502,-1.07432 c 0.32727,-0.59087 0.87091,-1.28475 1.20811,-1.54194 1.4524,-1.1078 0.86123,-1.08467 27.71938,-1.08467 h 24.73728 l 0.53111,0.41777 c 1.31918,1.03767 1.78271,2.93345 1.80551,7.38421 0.0211,4.10439 -0.25536,5.33585 -1.48843,6.63208 l -0.73227,0.76979 h -17.33538 -17.33534 v 11.80298 11.803 h 14.79073 c 8.96248,0 14.98971,0.0757 15.29571,0.192 1.28141,0.48719 2.07878,2.96216 2.25839,7.00982 0.0937,2.11425 0.0459,2.77187 -0.31036,4.25605 -0.49181,2.04916 -0.82018,2.75436 -1.54973,3.32821 -0.52784,0.41521 -0.62294,0.41777 -15.50793,0.41777 h -14.97681 v 13.70348 13.70347 h 17.78995 17.78995 l 0.58435,0.70891 c 0.88432,1.07285 1.24526,2.67894 1.24494,5.53965 0,3.00072 -0.41136,5.49769 -1.09782,6.66903 -0.95383,1.62761 1.57781,1.48681 -26.60341,1.47953 -23.87849,-0.007 -25.2678,-0.0258 -26.26904,-0.3717 z m 495.4574,-0.29481 c -1.80874,-0.37528 -3.15327,-0.93085 -3.82472,-1.58037 -0.0268,-0.026 -0.0942,-17.78168 -0.15004,-39.45718 l -0.10132,-39.40997 -12.63987,-0.0516 -12.63985,-0.0516 -0.58767,-0.71293 c -1.12621,-1.36629 -1.83755,-5.86975 -1.44639,-9.15703 0.30949,-2.60102 0.70356,-3.81483 1.53851,-4.73903 l 0.71547,-0.79194 h 34.65854 34.65853 l 0.5311,0.41777 c 0.72722,0.57204 1.017,1.19843 1.50512,3.25376 0.30503,1.28438 0.41834,2.42088 0.41831,4.19625 -4e-5,3.23885 -0.40328,5.3137 -1.26612,6.515 l -0.66161,0.92109 -12.73959,0.0516 -12.73958,0.0514 -0.0201,39.05842 c -0.0118,21.48212 -0.0816,39.28347 -0.15712,39.55854 -0.5517,2.01253 -9.26473,3.12837 -15.05188,1.92763 z m -125.82985,-0.003 c -1.26271,-0.45123 -1.93353,-1.08595 -2.6187,-2.47768 l -0.65915,-1.33887 -0.0526,-44.7739 c -0.0366,-31.14404 0.0118,-44.89406 0.15864,-45.16861 0.97565,-1.82299 7.87646,-2.88627 13.69746,-2.11051 2.76261,0.36817 4.78072,1.17851 5.11327,2.05316 0.11497,0.30269 0.18809,15.59129 0.18809,39.38797 v 38.89324 l 15.5879,0.0536 15.58788,0.0536 0.49075,0.46109 c 0.53806,0.50556 0.8701,1.2187 1.55506,3.33988 0.62186,1.92574 0.7388,4.97885 0.29135,7.6056 -0.36271,2.12932 -0.65804,2.8847 -1.46509,3.74728 l -0.51472,0.55014 -23.31847,-0.008 c -18.53321,-0.007 -23.4669,-0.0619 -24.04165,-0.26721 z M 202.12703,393.97463 c -7.9355,-0.68734 -15.58224,-3.81109 -21.49176,-8.77957 -2.97162,-2.49843 -1.34367,-0.63203 -30.52443,-34.99499 -9.02475,-10.62744 -19.70305,-23.14464 -26.86057,-31.48622 l -7.27664,-8.48038 1.16609,-1.18665 c 0.64135,-0.65266 2.29137,-2.10174 3.66672,-3.22016 1.37535,-1.11844 7.4969,-6.30698 13.60345,-11.53008 6.10655,-5.22311 23.75101,-20.2994 39.20993,-33.50286 31.12738,-26.58591 48.17455,-41.1548 66.61687,-56.93228 12.77132,-10.92592 17.83364,-15.19848 18.00456,-15.19572 0.1737,0.003 2.52343,3.23487 3.41298,4.69462 2.67334,4.38685 4.58677,10.13233 5.17734,15.54606 1.06229,9.73789 -2.20874,20.01906 -8.73811,27.46484 -1.74344,1.98812 -1.80386,2.04112 -19.15711,16.80751 -17.84098,15.18143 -28.45362,24.40574 -29.66075,25.78056 -2.50314,2.85095 -0.0563,7.93232 3.83664,7.9673 1.74888,0.0152 2.81196,-0.63354 7.14535,-4.36397 2.15982,-1.8593 6.07582,-5.23123 8.70221,-7.49314 2.62638,-2.26193 10.76175,-9.23317 18.07862,-15.49164 7.31685,-6.25846 16.04906,-13.77286 19.4049,-16.69867 3.35586,-2.9258 6.95677,-6.03556 8.00203,-6.91058 3.16168,-2.64674 11.27275,-9.57541 15.20488,-12.98838 2.03608,-1.76727 3.86302,-3.34006 4.05988,-3.49511 0.32046,-0.2524 0.41957,-0.21053 0.94692,0.4001 1.22065,1.41338 3.42198,4.81465 4.48585,6.93105 3.96343,7.88467 4.98608,17.68991 2.68657,25.75907 -1.57988,5.54388 -4.30991,10.89584 -7.53085,14.76345 -1.35496,1.62698 -3.87712,3.81301 -31.45619,27.26396 -22.60083,19.21784 -23.26055,19.79164 -23.85691,20.74892 -1.61118,2.58631 -0.67072,5.73641 2.14879,7.19755 1.04219,0.54009 3.10765,0.57283 4.07462,0.0646 0.36911,-0.194 4.42014,-3.56559 9.00228,-7.49241 4.58213,-3.92682 17.15188,-14.65484 27.93278,-23.84006 10.78091,-9.18523 23.47411,-20.01507 28.20714,-24.06634 l 8.60552,-7.36594 0.77225,0.86429 c 1.19872,1.3416 3.17792,4.43915 4.41516,6.90998 2.68867,5.36937 4.16493,12.10159 3.82874,17.46026 -0.49321,7.86167 -2.5817,13.93928 -6.87319,20.00136 -2.08618,2.94692 -5.8591,6.55722 -14.5461,13.91914 -4.40111,3.72977 -19.3449,16.46293 -33.20841,28.29591 -13.86352,11.83297 -28.89733,24.65897 -33.40847,28.50224 -4.51114,3.84327 -9.05729,7.74213 -10.10255,8.66417 -7.62548,6.72647 -18.14501,10.33645 -27.70703,9.50823 z m 297.77544,-60.67507 c -2.35039,-0.18986 -4.31848,-0.86408 -4.70516,-1.61187 -0.4366,-0.84427 -0.3534,-2.23314 0.27518,-4.59347 0.95474,-3.58515 30.00704,-87.23896 30.59608,-88.09901 0.67236,-0.98176 1.59074,-1.37864 4.20646,-1.81787 1.75561,-0.2948 3.06952,-0.33088 9.1938,-0.2524 7.43361,0.0953 8.05085,0.16066 9.93202,1.05338 0.61546,0.29206 0.88095,0.60706 1.33117,1.57942 0.56542,1.22112 31.12618,85.20934 31.80839,87.41693 0.57969,1.87593 0.67747,3.68256 0.24427,4.51387 -0.75743,1.45352 -1.78932,1.65705 -9.76368,1.9257 -4.34533,0.14634 -7.9249,-0.11312 -8.96289,-0.64992 -0.75514,-0.39049 -1.54024,-1.23175 -1.53825,-1.64829 0,-0.17647 -1.50704,-4.70884 -3.35085,-10.07192 l -3.35236,-9.75105 -18.0047,-0.001 -18.00468,-10e-4 -3.18398,10.09706 c -2.62356,8.31979 -3.27767,10.18679 -3.71623,10.60694 -0.38342,0.36736 -1.10469,0.64853 -2.58008,1.00578 -1.79879,0.43555 -2.45384,0.49228 -5.38597,0.46638 -1.83596,-0.0169 -4.10331,-0.0912 -5.03854,-0.16689 z m 45.24528,-57.61837 c -3.70385,-11.11281 -6.77986,-20.20511 -6.83554,-20.20511 -0.0556,0 -3.13169,9.0923 -6.83556,20.20511 l -6.7343,20.20513 h 13.56986 13.56984 z m 245.62841,57.58915 c -1.04526,-0.0941 -2.30558,-0.26678 -2.80071,-0.3837 -1.07707,-0.25434 -2.80225,-1.10185 -3.15079,-1.54789 -0.1984,-0.25387 -0.25007,-9.80979 -0.25007,-46.2489 0,-41.36326 0.0312,-45.97336 0.3133,-46.3762 0.85719,-1.22378 3.49597,-1.82292 8.68899,-1.97279 2.80439,-0.0809 4.14475,-0.0327 5.53299,0.1992 1.96541,0.32829 3.64603,1.04517 4.15554,1.77258 0.28309,0.40417 0.314,4.96999 0.314,46.37721 0,36.4457 -0.0516,45.99243 -0.25007,46.23654 -0.40386,0.49682 -1.59388,1.13094 -2.5566,1.36232 -0.92418,0.22211 -6.71111,0.81183 -7.59596,0.77409 -0.27508,-0.0118 -1.35535,-0.0983 -2.40062,-0.19246 z m 177.68117,0.007 c -6.69424,-0.40411 -12.06165,-1.63936 -17.74065,-4.08284 -11.24809,-4.83964 -18.17928,-12.10389 -22.79725,-23.89262 -2.71019,-6.91862 -3.82971,-17.34444 -2.89053,-26.91898 0.96818,-9.87023 4.38261,-19.20793 9.53041,-26.0636 1.49742,-1.99422 4.73809,-5.35642 6.64813,-6.89747 8.9025,-7.1826 21.743,-11.08024 35.21576,-10.68946 5.32138,0.15442 8.58545,0.65586 16.6042,2.55121 3.8217,0.9033 6.17426,1.93211 10.1601,4.44314 1.9817,1.24848 2.3263,2.17636 2.6546,7.1487 0.1981,2.99964 0.1859,3.8047 -0.085,5.62285 -0.3136,2.1043 -0.8625,3.75599 -1.4721,4.4297 -0.6397,0.707 -1.7052,0.38245 -4.44327,-1.35327 -0.95842,-0.6076 -2.82054,-1.59203 -4.13801,-2.18766 -2.96791,-1.34178 -9.03339,-3.3719 -11.69451,-3.91422 -4.31416,-0.87917 -11.36734,-1.00974 -15.58797,-0.28855 -7.017,1.19899 -13.46526,5.27259 -17.72026,11.19457 -1.79549,2.49891 -4.31884,7.64971 -5.06579,10.34053 -1.19027,4.28786 -1.50816,6.78581 -1.50999,11.86511 -0.002,4.98922 0.26265,7.40545 1.18862,10.86029 1.30678,4.87556 4.58394,11.11357 7.53476,14.34225 3.41742,3.7392 9.6654,6.56777 16.84866,7.6277 3.62512,0.5349 9.80649,0.13807 12.4656,-0.80036 0.41915,-0.14785 1.50475,-0.60844 2.41249,-1.02341 l 1.65041,-0.75448 v -11.175 -11.17499 h -9.39121 -9.39125 l -0.52885,-0.45491 c -0.80185,-0.68974 -1.12643,-2.20164 -1.24073,-5.77983 -0.14161,-4.43436 0.29988,-6.53964 1.65594,-7.8957 l 0.47327,-0.47327 h 17.37434 17.37435 l 0.9324,0.59133 c 0.7338,0.46534 1.0938,0.90226 1.6896,2.05053 l 0.7571,1.45918 v 20.60523 c 0,23.61644 0.051,22.77569 -1.4804,24.30219 -1.0121,1.00856 -1.8399,1.44794 -4.48812,2.38205 -9.05401,3.19366 -20.60676,4.66193 -31.50478,4.00406 z m -363.42822,-0.32717 c -2.04518,-0.29553 -4.18912,-0.86718 -4.97117,-1.32548 -0.79543,-0.46617 -0.92106,-0.63485 -1.02759,-1.37993 -0.0668,-0.46687 -0.0947,-20.56385 -0.062,-44.65995 0.056,-41.3624 0.0791,-43.86065 0.41334,-44.69759 0.50299,-1.25955 1.23894,-2.14815 2.20822,-2.66626 l 0.83862,-0.44827 h 18.40468 c 16.92466,0 18.55748,0.0292 20.30513,0.36197 7.46004,1.42083 13.77739,4.57458 17.25336,8.61323 3.02675,3.51672 4.93229,7.26482 5.65845,11.1299 0.49937,2.65789 0.5078,8.9752 0.0152,11.49565 -0.43892,2.24653 -1.39759,5.26935 -2.12775,6.70895 -2.62127,5.16841 -7.89671,9.52126 -14.38008,11.86519 l -1.86721,0.67507 0.77472,0.46463 c 2.82748,1.69576 6.37357,4.97592 8.32473,7.70036 1.54905,2.16301 4.64713,8.71039 8.7087,18.40468 2.30488,5.50138 4.43813,10.72271 4.74057,11.60294 0.30241,0.88021 0.68223,1.87046 0.84405,2.20055 0.16774,0.34207 0.26583,0.97851 0.22822,1.48002 -0.0546,0.72776 -0.18887,0.97903 -0.77686,1.45353 -1.21957,0.98418 -3.19223,1.19889 -10.36369,1.12803 l -6.12985,-0.0605 -1.19973,-0.56171 c -1.53339,-0.71791 -2.0528,-1.21556 -2.32336,-2.22597 -0.45379,-1.69468 -9.07997,-22.95167 -10.4777,-25.81957 -1.78813,-3.66901 -2.69516,-5.08169 -4.33783,-6.75617 -3.2114,-3.27359 -6.03797,-4.21121 -12.36916,-4.10299 l -3.30083,0.0565 -0.0511,18.63782 -0.0511,18.63781 -0.61242,0.51533 c -1.21512,1.02244 -4.98529,1.73286 -8.96415,1.68908 -1.49846,-0.0169 -2.99455,-0.0689 -3.32464,-0.11666 z m 28.90731,-54.44126 c 3.86303,-0.99903 6.7159,-2.93318 8.57958,-5.81666 2.69622,-4.17159 2.6354,-11.08824 -0.13368,-15.20711 -1.7433,-2.59301 -4.30305,-4.00679 -8.92972,-4.93202 -2.2217,-0.44427 -2.83245,-0.4768 -8.95227,-0.4768 h -6.56789 v 13.51891 13.51892 l 7.15182,-0.0828 c 6.55943,-0.0759 7.29264,-0.11919 8.85223,-0.52249 z m 54.91392,54.4754 c -0.22005,-0.0518 -1.07526,-0.24064 -1.90048,-0.41977 -1.63081,-0.35403 -2.76427,-0.84217 -3.2142,-1.38428 -0.24654,-0.29705 -0.2947,-6.3859 -0.344,-43.47564 -0.0378,-28.35143 0.0118,-43.66127 0.14566,-44.68002 0.32984,-2.51826 1.52178,-4.29988 3.46422,-5.17799 l 1.04858,-0.47402 h 8.40213 c 9.59146,0 9.37582,-0.031 12.01044,1.73106 1.88466,1.26054 3.38681,3.06705 4.60771,5.54128 0.83086,1.6838 12.0886,23.07522 20.60503,39.15266 1.57749,2.97803 3.50074,6.77864 4.27385,8.44579 0.77313,1.66717 2.33823,4.90203 3.47805,7.18859 1.13981,2.28658 2.28492,4.69754 2.54469,5.3577 0.25977,0.66017 0.54928,1.29033 0.64337,1.40036 0.0947,0.11076 0.0993,-1.54 0.0101,-3.70093 -0.0885,-2.14556 -0.161,-17.29703 -0.161,-33.66996 v -29.76983 l 0.50012,-0.40266 c 1.1189,-0.90085 2.18624,-1.20634 5.27189,-1.50887 2.4559,-0.24079 3.47693,-0.25385 5.38715,-0.069 2.87166,0.27802 4.01448,0.60107 4.99493,1.41198 l 0.7502,0.62046 v 43.39643 c 0,41.89166 0.0118,43.39644 0.36544,43.39644 0.44979,0 0.39641,0.69681 -0.19475,2.54234 -0.48837,1.52464 -1.81911,3.02904 -3.27148,3.69838 -0.96386,0.44422 -1.22168,0.46321 -7.08688,0.52201 -7.98092,0.0801 -9.41234,-0.1803 -12.29129,-2.23531 -1.51409,-1.08076 -2.90108,-2.97125 -5.08287,-6.92803 -3.1552,-5.72212 -24.93605,-46.98403 -27.38095,-51.87082 -1.37303,-2.74435 -3.22003,-6.62226 -4.10444,-8.61757 -0.88443,-1.99532 -1.7116,-3.82564 -1.83816,-4.06737 -0.17403,-0.33242 -0.21665,8.37866 -0.17489,35.74643 l 0.0553,36.18593 -0.45531,0.42972 c -0.7422,0.70047 -1.42063,0.96981 -3.28806,1.3054 -1.72637,0.31023 -6.97295,0.5656 -7.76995,0.37818 z m -257.46138,-0.6077 c -1.06179,-0.38917 -1.97631,-1.30966 -2.54119,-2.55777 l -0.46342,-1.02392 -0.0517,-43.3036 c -0.0585,-48.91764 -0.19475,-44.76122 1.52147,-46.42292 0.53976,-0.5226 1.28053,-1.00792 1.75574,-1.15029 0.63197,-0.18934 6.6284,-0.24628 25.93446,-0.24628 h 25.11245 l 0.60997,0.6947 c 0.75823,0.86361 0.9605,1.55768 1.3715,4.70667 0.27782,2.12833 0.28984,2.79847 0.0808,4.50114 -0.2649,2.15724 -0.85469,3.75331 -1.6989,4.59751 l -0.50376,0.50378 h -17.61354 -17.61357 v 11.69804 11.69805 l 14.98289,0.055 c 14.65639,0.0538 14.9925,0.0637 15.42438,0.45456 1.10422,0.99952 1.57183,2.78921 1.72495,6.60215 0.1057,2.63096 0.0703,3.18953 -0.28715,4.53261 -0.4701,1.76643 -0.81763,2.50843 -1.43782,3.06978 -0.43191,0.39095 -0.76714,0.4008 -15.42438,0.45336 l -14.98287,0.0538 v 13.4965 13.49649 l 17.61989,0.0533 17.61985,0.0533 0.67273,0.73411 c 0.37128,0.40516 0.7692,1.12229 0.88804,1.60041 0.11835,0.47645 0.40551,1.23238 0.63799,1.67982 0.39147,0.75344 0.41487,1.0342 0.31696,3.80096 -0.11818,3.33758 -0.27213,4.03276 -1.20157,5.42351 l -0.64479,0.96477 -25.50646,0.0362 c -21.92099,0.0312 -25.61842,-0.005 -26.30282,-0.25557 z m -65.93996,-0.0821 c -1.78429,-0.30427 -3.00972,-1.35285 -3.72595,-3.1883 -0.33634,-0.86194 -0.3589,-3.29619 -0.41499,-44.82256 -0.0325,-24.15113 -0.003,-44.29635 0.0632,-44.76719 0.1025,-0.71637 0.25295,-0.94244 0.92214,-1.38528 1.27821,-0.84587 3.57076,-1.24782 7.87625,-1.38092 4.65482,-0.14397 6.83212,0.14515 8.75585,1.16251 l 1.24668,0.6593 0.0506,39.05631 0.0506,39.0563 15.62545,0.0536 15.62541,0.0536 0.53546,0.64146 c 0.32092,0.38444 0.79304,1.48301 1.17834,2.74179 0.57404,1.87549 0.64286,2.36192 0.64286,4.54348 0,3.85339 -0.53418,6.08142 -1.72663,7.20173 l -0.5061,0.47549 -22.63966,0.0278 c -12.45181,0.0152 -23.05349,-0.0428 -23.55929,-0.12914 z m 468.23803,0.0863 c -0.22005,-0.0519 -1.13715,-0.24017 -2.03798,-0.41838 -1.85881,-0.3677 -3.03929,-0.9466 -3.4081,-1.67131 -0.20129,-0.39555 -0.24254,-9.42253 -0.20385,-44.60707 l 0.0485,-44.11119 0.44896,-1.10877 c 0.54587,-1.34812 1.7968,-2.69555 3.03362,-3.26761 0.87915,-0.40661 1.25734,-0.42751 8.82054,-0.48731 8.40835,-0.0664 9.54093,0.0206 11.19825,0.86037 2.66497,1.35043 4.46196,3.30914 6.24229,6.80403 0.67257,1.32034 5.85915,11.17784 11.52573,21.90556 9.51858,18.02018 16.50997,31.7696 18.85095,37.07278 0.52538,1.19017 1.01945,2.22543 1.09794,2.30059 0.0786,0.0752 0.0807,-0.26846 0.005,-0.76359 -0.0759,-0.49511 -0.18242,-15.5762 -0.23696,-33.5135 l -0.0991,-32.61327 0.41507,-0.52765 c 0.74021,-0.94102 1.96517,-1.36282 4.85252,-1.67089 3.43238,-0.36623 4.90351,-0.36283 7.08771,0.0169 2.53741,0.44054 3.24572,0.68912 4.00553,1.40572 l 0.67184,0.63363 v 43.33738 c -10e-5,38.38872 0.0342,43.33734 0.29998,43.33734 0.4162,0 0.38098,0.693 -0.11835,2.32954 -0.35829,1.17419 -0.59564,1.54548 -1.6504,2.58183 -1.83059,1.79863 -2.28311,1.89101 -9.24709,1.88774 -4.7028,-0.002 -5.88006,-0.0629 -7.42955,-0.3826 -2.94364,-0.60748 -4.63125,-1.72688 -6.7252,-4.46095 -1.4593,-1.9054 -1.98798,-2.87387 -15.58489,-28.54954 -12.28255,-23.19377 -16.19061,-30.82545 -18.79159,-36.69656 -0.8836,-1.99452 -1.66548,-3.73257 -1.73748,-3.86235 -0.072,-0.12981 -0.10537,16.03988 -0.0742,35.93253 l 0.0566,36.16847 -0.71051,0.62384 c -0.39078,0.34312 -0.95643,0.67815 -1.25698,0.74452 -0.30059,0.0664 -1.08661,0.25753 -1.74679,0.42478 -1.16436,0.29498 -6.74147,0.54844 -7.60193,0.34548 z"
       id="path2634" />
  </g>
</svg>